<mxfile host="app.diagrams.net" agent="Mozilla/5.0 (X11; Ubuntu; Linux x86_64; rv:132.0) Gecko/20100101 Firefox/132.0" version="26.0.9">
  <diagram name="Page-1" id="WsJIaT5JEXBMo02mP_4F">
    <mxGraphModel dx="1364" dy="1895" grid="1" gridSize="10" guides="1" tooltips="1" connect="1" arrows="1" fold="1" page="1" pageScale="1" pageWidth="850" pageHeight="1100" math="0" shadow="0">
      <root>
        <mxCell id="0" />
        <mxCell id="1" parent="0" />
        <mxCell id="Lk0jOiy2KC7L6YDZuXlN-3" value="" style="edgeStyle=orthogonalEdgeStyle;rounded=0;orthogonalLoop=1;jettySize=auto;html=1;" edge="1" parent="1" source="Lk0jOiy2KC7L6YDZuXlN-1" target="Lk0jOiy2KC7L6YDZuXlN-2">
          <mxGeometry relative="1" as="geometry" />
        </mxCell>
        <mxCell id="Lk0jOiy2KC7L6YDZuXlN-1" value="start" style="ellipse;whiteSpace=wrap;html=1;" vertex="1" parent="1">
          <mxGeometry x="340" y="-30" width="120" height="80" as="geometry" />
        </mxCell>
        <mxCell id="Lk0jOiy2KC7L6YDZuXlN-5" value="" style="edgeStyle=orthogonalEdgeStyle;rounded=0;orthogonalLoop=1;jettySize=auto;html=1;" edge="1" parent="1" source="Lk0jOiy2KC7L6YDZuXlN-2" target="Lk0jOiy2KC7L6YDZuXlN-4">
          <mxGeometry relative="1" as="geometry" />
        </mxCell>
        <mxCell id="Lk0jOiy2KC7L6YDZuXlN-2" value="read n" style="shape=parallelogram;perimeter=parallelogramPerimeter;whiteSpace=wrap;html=1;fixedSize=1;" vertex="1" parent="1">
          <mxGeometry x="340" y="160" width="120" height="60" as="geometry" />
        </mxCell>
        <mxCell id="Lk0jOiy2KC7L6YDZuXlN-7" value="" style="edgeStyle=orthogonalEdgeStyle;rounded=0;orthogonalLoop=1;jettySize=auto;html=1;" edge="1" parent="1" source="Lk0jOiy2KC7L6YDZuXlN-4" target="Lk0jOiy2KC7L6YDZuXlN-6">
          <mxGeometry relative="1" as="geometry" />
        </mxCell>
        <mxCell id="Lk0jOiy2KC7L6YDZuXlN-8" value="true" style="edgeLabel;html=1;align=center;verticalAlign=middle;resizable=0;points=[];" vertex="1" connectable="0" parent="Lk0jOiy2KC7L6YDZuXlN-7">
          <mxGeometry x="-0.275" y="4" relative="1" as="geometry">
            <mxPoint as="offset" />
          </mxGeometry>
        </mxCell>
        <mxCell id="Lk0jOiy2KC7L6YDZuXlN-27" value="" style="edgeStyle=orthogonalEdgeStyle;rounded=0;orthogonalLoop=1;jettySize=auto;html=1;" edge="1" parent="1" source="Lk0jOiy2KC7L6YDZuXlN-4" target="Lk0jOiy2KC7L6YDZuXlN-26">
          <mxGeometry relative="1" as="geometry" />
        </mxCell>
        <mxCell id="Lk0jOiy2KC7L6YDZuXlN-42" value="FALSE" style="edgeLabel;html=1;align=center;verticalAlign=middle;resizable=0;points=[];" vertex="1" connectable="0" parent="Lk0jOiy2KC7L6YDZuXlN-27">
          <mxGeometry x="0.1" y="-3" relative="1" as="geometry">
            <mxPoint as="offset" />
          </mxGeometry>
        </mxCell>
        <mxCell id="Lk0jOiy2KC7L6YDZuXlN-4" value="n % 1 == 0" style="rhombus;whiteSpace=wrap;html=1;" vertex="1" parent="1">
          <mxGeometry x="360" y="250" width="80" height="80" as="geometry" />
        </mxCell>
        <mxCell id="Lk0jOiy2KC7L6YDZuXlN-11" value="" style="edgeStyle=orthogonalEdgeStyle;rounded=0;orthogonalLoop=1;jettySize=auto;html=1;" edge="1" parent="1" source="Lk0jOiy2KC7L6YDZuXlN-6" target="Lk0jOiy2KC7L6YDZuXlN-10">
          <mxGeometry relative="1" as="geometry" />
        </mxCell>
        <mxCell id="Lk0jOiy2KC7L6YDZuXlN-23" value="true" style="edgeLabel;html=1;align=center;verticalAlign=middle;resizable=0;points=[];" vertex="1" connectable="0" parent="Lk0jOiy2KC7L6YDZuXlN-11">
          <mxGeometry x="-0.6" y="5" relative="1" as="geometry">
            <mxPoint as="offset" />
          </mxGeometry>
        </mxCell>
        <mxCell id="Lk0jOiy2KC7L6YDZuXlN-24" value="" style="edgeStyle=orthogonalEdgeStyle;rounded=0;orthogonalLoop=1;jettySize=auto;html=1;" edge="1" parent="1" source="Lk0jOiy2KC7L6YDZuXlN-6" target="Lk0jOiy2KC7L6YDZuXlN-18">
          <mxGeometry relative="1" as="geometry" />
        </mxCell>
        <mxCell id="Lk0jOiy2KC7L6YDZuXlN-25" value="false" style="edgeLabel;html=1;align=center;verticalAlign=middle;resizable=0;points=[];" vertex="1" connectable="0" parent="Lk0jOiy2KC7L6YDZuXlN-24">
          <mxGeometry x="-0.3" y="-2" relative="1" as="geometry">
            <mxPoint as="offset" />
          </mxGeometry>
        </mxCell>
        <mxCell id="Lk0jOiy2KC7L6YDZuXlN-6" value="&lt;div&gt;n &amp;gt;= 1 &lt;br&gt;&lt;/div&gt;&lt;div&gt;and &lt;br&gt;&lt;/div&gt;&lt;div&gt;n &amp;lt;= 100&lt;br&gt;&lt;/div&gt;" style="rhombus;whiteSpace=wrap;html=1;" vertex="1" parent="1">
          <mxGeometry x="530" y="350" width="90" height="100" as="geometry" />
        </mxCell>
        <mxCell id="Lk0jOiy2KC7L6YDZuXlN-9" value="&lt;div&gt;sum = 0 &lt;br&gt;&lt;/div&gt;&lt;div&gt;i = 0&lt;br&gt;&lt;/div&gt;" style="rounded=0;whiteSpace=wrap;html=1;" vertex="1" parent="1">
          <mxGeometry x="340" y="70" width="120" height="60" as="geometry" />
        </mxCell>
        <mxCell id="Lk0jOiy2KC7L6YDZuXlN-13" value="FALSE" style="edgeStyle=orthogonalEdgeStyle;rounded=0;orthogonalLoop=1;jettySize=auto;html=1;" edge="1" parent="1" source="Lk0jOiy2KC7L6YDZuXlN-10" target="Lk0jOiy2KC7L6YDZuXlN-12">
          <mxGeometry relative="1" as="geometry" />
        </mxCell>
        <mxCell id="Lk0jOiy2KC7L6YDZuXlN-45" value="" style="edgeStyle=orthogonalEdgeStyle;rounded=0;orthogonalLoop=1;jettySize=auto;html=1;" edge="1" parent="1" source="Lk0jOiy2KC7L6YDZuXlN-10" target="Lk0jOiy2KC7L6YDZuXlN-12">
          <mxGeometry relative="1" as="geometry" />
        </mxCell>
        <mxCell id="Lk0jOiy2KC7L6YDZuXlN-46" style="edgeStyle=orthogonalEdgeStyle;rounded=0;orthogonalLoop=1;jettySize=auto;html=1;" edge="1" parent="1" source="Lk0jOiy2KC7L6YDZuXlN-10">
          <mxGeometry relative="1" as="geometry">
            <mxPoint x="410" y="870" as="targetPoint" />
            <Array as="points">
              <mxPoint x="490" y="540" />
              <mxPoint x="490" y="870" />
            </Array>
          </mxGeometry>
        </mxCell>
        <mxCell id="Lk0jOiy2KC7L6YDZuXlN-47" value="TRUE" style="edgeLabel;html=1;align=center;verticalAlign=middle;resizable=0;points=[];" vertex="1" connectable="0" parent="Lk0jOiy2KC7L6YDZuXlN-46">
          <mxGeometry x="-0.8242" y="1" relative="1" as="geometry">
            <mxPoint as="offset" />
          </mxGeometry>
        </mxCell>
        <mxCell id="Lk0jOiy2KC7L6YDZuXlN-10" value="i &amp;gt;= n" style="rhombus;whiteSpace=wrap;html=1;" vertex="1" parent="1">
          <mxGeometry x="535" y="500" width="80" height="80" as="geometry" />
        </mxCell>
        <mxCell id="Lk0jOiy2KC7L6YDZuXlN-15" value="" style="edgeStyle=orthogonalEdgeStyle;rounded=0;orthogonalLoop=1;jettySize=auto;html=1;" edge="1" parent="1" source="Lk0jOiy2KC7L6YDZuXlN-12" target="Lk0jOiy2KC7L6YDZuXlN-14">
          <mxGeometry relative="1" as="geometry" />
        </mxCell>
        <mxCell id="Lk0jOiy2KC7L6YDZuXlN-12" value="sum = sum + i" style="whiteSpace=wrap;html=1;" vertex="1" parent="1">
          <mxGeometry x="515" y="630" width="120" height="60" as="geometry" />
        </mxCell>
        <mxCell id="Lk0jOiy2KC7L6YDZuXlN-17" value="" style="edgeStyle=orthogonalEdgeStyle;rounded=0;orthogonalLoop=1;jettySize=auto;html=1;" edge="1" parent="1" source="Lk0jOiy2KC7L6YDZuXlN-14" target="Lk0jOiy2KC7L6YDZuXlN-16">
          <mxGeometry relative="1" as="geometry" />
        </mxCell>
        <mxCell id="Lk0jOiy2KC7L6YDZuXlN-14" value="i += 2" style="whiteSpace=wrap;html=1;" vertex="1" parent="1">
          <mxGeometry x="515" y="720" width="120" height="60" as="geometry" />
        </mxCell>
        <mxCell id="Lk0jOiy2KC7L6YDZuXlN-29" style="edgeStyle=orthogonalEdgeStyle;rounded=0;orthogonalLoop=1;jettySize=auto;html=1;" edge="1" parent="1" source="Lk0jOiy2KC7L6YDZuXlN-16">
          <mxGeometry relative="1" as="geometry">
            <mxPoint x="680" y="540" as="targetPoint" />
          </mxGeometry>
        </mxCell>
        <mxCell id="Lk0jOiy2KC7L6YDZuXlN-16" value="write sum" style="shape=parallelogram;perimeter=parallelogramPerimeter;whiteSpace=wrap;html=1;fixedSize=1;" vertex="1" parent="1">
          <mxGeometry x="515" y="800" width="120" height="60" as="geometry" />
        </mxCell>
        <mxCell id="Lk0jOiy2KC7L6YDZuXlN-22" value="" style="edgeStyle=orthogonalEdgeStyle;rounded=0;orthogonalLoop=1;jettySize=auto;html=1;" edge="1" parent="1" source="Lk0jOiy2KC7L6YDZuXlN-18" target="Lk0jOiy2KC7L6YDZuXlN-21">
          <mxGeometry relative="1" as="geometry" />
        </mxCell>
        <mxCell id="Lk0jOiy2KC7L6YDZuXlN-43" value="TRUE" style="edgeLabel;html=1;align=center;verticalAlign=middle;resizable=0;points=[];" vertex="1" connectable="0" parent="Lk0jOiy2KC7L6YDZuXlN-22">
          <mxGeometry x="-0.5" relative="1" as="geometry">
            <mxPoint as="offset" />
          </mxGeometry>
        </mxCell>
        <mxCell id="Lk0jOiy2KC7L6YDZuXlN-32" value="" style="edgeStyle=orthogonalEdgeStyle;rounded=0;orthogonalLoop=1;jettySize=auto;html=1;" edge="1" parent="1" source="Lk0jOiy2KC7L6YDZuXlN-18" target="Lk0jOiy2KC7L6YDZuXlN-31">
          <mxGeometry relative="1" as="geometry" />
        </mxCell>
        <mxCell id="Lk0jOiy2KC7L6YDZuXlN-44" value="FALSE" style="edgeLabel;html=1;align=center;verticalAlign=middle;resizable=0;points=[];" vertex="1" connectable="0" parent="Lk0jOiy2KC7L6YDZuXlN-32">
          <mxGeometry x="-0.8" y="-1" relative="1" as="geometry">
            <mxPoint as="offset" />
          </mxGeometry>
        </mxCell>
        <mxCell id="Lk0jOiy2KC7L6YDZuXlN-18" value="&lt;div&gt;n == 0&lt;/div&gt;&lt;div&gt;or &lt;br&gt;&lt;/div&gt;&lt;div&gt;n &amp;lt; 0&lt;br&gt;&lt;/div&gt;" style="rhombus;whiteSpace=wrap;html=1;" vertex="1" parent="1">
          <mxGeometry x="370" y="360" width="80" height="80" as="geometry" />
        </mxCell>
        <mxCell id="Lk0jOiy2KC7L6YDZuXlN-40" style="edgeStyle=orthogonalEdgeStyle;rounded=0;orthogonalLoop=1;jettySize=auto;html=1;" edge="1" parent="1" source="Lk0jOiy2KC7L6YDZuXlN-21">
          <mxGeometry relative="1" as="geometry">
            <mxPoint x="50" y="290" as="targetPoint" />
            <Array as="points">
              <mxPoint x="410" y="870" />
              <mxPoint x="51" y="870" />
            </Array>
          </mxGeometry>
        </mxCell>
        <mxCell id="Lk0jOiy2KC7L6YDZuXlN-21" value="write errore" style="shape=parallelogram;perimeter=parallelogramPerimeter;whiteSpace=wrap;html=1;fixedSize=1;" vertex="1" parent="1">
          <mxGeometry x="350" y="500" width="120" height="60" as="geometry" />
        </mxCell>
        <mxCell id="Lk0jOiy2KC7L6YDZuXlN-26" value="end" style="ellipse;whiteSpace=wrap;html=1;" vertex="1" parent="1">
          <mxGeometry x="200" y="250" width="80" height="80" as="geometry" />
        </mxCell>
        <mxCell id="Lk0jOiy2KC7L6YDZuXlN-30" value="" style="endArrow=classic;html=1;rounded=0;entryX=1;entryY=0.5;entryDx=0;entryDy=0;" edge="1" parent="1" target="Lk0jOiy2KC7L6YDZuXlN-10">
          <mxGeometry width="50" height="50" relative="1" as="geometry">
            <mxPoint x="680" y="540" as="sourcePoint" />
            <mxPoint x="730" y="490" as="targetPoint" />
          </mxGeometry>
        </mxCell>
        <mxCell id="Lk0jOiy2KC7L6YDZuXlN-34" value="" style="edgeStyle=orthogonalEdgeStyle;rounded=0;orthogonalLoop=1;jettySize=auto;html=1;" edge="1" parent="1" source="Lk0jOiy2KC7L6YDZuXlN-31" target="Lk0jOiy2KC7L6YDZuXlN-33">
          <mxGeometry relative="1" as="geometry" />
        </mxCell>
        <mxCell id="Lk0jOiy2KC7L6YDZuXlN-50" value="FALSE" style="edgeLabel;html=1;align=center;verticalAlign=middle;resizable=0;points=[];" vertex="1" connectable="0" parent="Lk0jOiy2KC7L6YDZuXlN-34">
          <mxGeometry x="-0.5" y="-1" relative="1" as="geometry">
            <mxPoint as="offset" />
          </mxGeometry>
        </mxCell>
        <mxCell id="Lk0jOiy2KC7L6YDZuXlN-51" style="edgeStyle=orthogonalEdgeStyle;rounded=0;orthogonalLoop=1;jettySize=auto;html=1;" edge="1" parent="1" source="Lk0jOiy2KC7L6YDZuXlN-31">
          <mxGeometry relative="1" as="geometry">
            <mxPoint x="50" y="490" as="targetPoint" />
          </mxGeometry>
        </mxCell>
        <mxCell id="Lk0jOiy2KC7L6YDZuXlN-52" value="TRUE" style="edgeLabel;html=1;align=center;verticalAlign=middle;resizable=0;points=[];" vertex="1" connectable="0" parent="Lk0jOiy2KC7L6YDZuXlN-51">
          <mxGeometry x="-0.2707" y="3" relative="1" as="geometry">
            <mxPoint as="offset" />
          </mxGeometry>
        </mxCell>
        <mxCell id="Lk0jOiy2KC7L6YDZuXlN-31" value="i &amp;gt;= n" style="rhombus;whiteSpace=wrap;html=1;" vertex="1" parent="1">
          <mxGeometry x="140" y="450" width="80" height="80" as="geometry" />
        </mxCell>
        <mxCell id="Lk0jOiy2KC7L6YDZuXlN-37" value="" style="edgeStyle=orthogonalEdgeStyle;rounded=0;orthogonalLoop=1;jettySize=auto;html=1;" edge="1" parent="1" source="Lk0jOiy2KC7L6YDZuXlN-33" target="Lk0jOiy2KC7L6YDZuXlN-36">
          <mxGeometry relative="1" as="geometry" />
        </mxCell>
        <mxCell id="Lk0jOiy2KC7L6YDZuXlN-33" value="sum = sum +&amp;nbsp; i " style="whiteSpace=wrap;html=1;" vertex="1" parent="1">
          <mxGeometry x="120" y="570" width="120" height="60" as="geometry" />
        </mxCell>
        <mxCell id="Lk0jOiy2KC7L6YDZuXlN-35" value="i = 1" style="rounded=0;whiteSpace=wrap;html=1;" vertex="1" parent="1">
          <mxGeometry x="210" y="370" width="120" height="60" as="geometry" />
        </mxCell>
        <mxCell id="Lk0jOiy2KC7L6YDZuXlN-39" value="" style="edgeStyle=orthogonalEdgeStyle;rounded=0;orthogonalLoop=1;jettySize=auto;html=1;" edge="1" parent="1" source="Lk0jOiy2KC7L6YDZuXlN-36" target="Lk0jOiy2KC7L6YDZuXlN-38">
          <mxGeometry relative="1" as="geometry" />
        </mxCell>
        <mxCell id="Lk0jOiy2KC7L6YDZuXlN-36" value="i += 2" style="whiteSpace=wrap;html=1;" vertex="1" parent="1">
          <mxGeometry x="120" y="660" width="120" height="60" as="geometry" />
        </mxCell>
        <mxCell id="Lk0jOiy2KC7L6YDZuXlN-48" style="edgeStyle=orthogonalEdgeStyle;rounded=0;orthogonalLoop=1;jettySize=auto;html=1;" edge="1" parent="1" source="Lk0jOiy2KC7L6YDZuXlN-38">
          <mxGeometry relative="1" as="geometry">
            <mxPoint x="280" y="490" as="targetPoint" />
          </mxGeometry>
        </mxCell>
        <mxCell id="Lk0jOiy2KC7L6YDZuXlN-38" value="write sum" style="shape=parallelogram;perimeter=parallelogramPerimeter;whiteSpace=wrap;html=1;fixedSize=1;" vertex="1" parent="1">
          <mxGeometry x="120" y="750" width="120" height="60" as="geometry" />
        </mxCell>
        <mxCell id="Lk0jOiy2KC7L6YDZuXlN-41" value="" style="endArrow=classic;html=1;rounded=0;entryX=0;entryY=0.5;entryDx=0;entryDy=0;" edge="1" parent="1" target="Lk0jOiy2KC7L6YDZuXlN-26">
          <mxGeometry width="50" height="50" relative="1" as="geometry">
            <mxPoint x="50" y="290" as="sourcePoint" />
            <mxPoint x="100" y="240" as="targetPoint" />
          </mxGeometry>
        </mxCell>
        <mxCell id="Lk0jOiy2KC7L6YDZuXlN-49" value="" style="endArrow=classic;html=1;rounded=0;" edge="1" parent="1" target="Lk0jOiy2KC7L6YDZuXlN-31">
          <mxGeometry width="50" height="50" relative="1" as="geometry">
            <mxPoint x="280" y="490" as="sourcePoint" />
            <mxPoint x="330" y="440" as="targetPoint" />
          </mxGeometry>
        </mxCell>
      </root>
    </mxGraphModel>
  </diagram>
</mxfile>
